<?xml version="1.0"?>
<svg xmlns="http://www.w3.org/2000/svg" viewBox="0 0 50 50">
    <path style="line-height:normal;text-indent:0;text-align:start;text-decoration-line:none;text-decoration-style:solid;text-decoration-color:#000;text-transform:none;block-progression:tb;isolation:auto;mix-blend-mode:normal" d="M 7 0 L 7 48 L 28 48 A 1.0001 1.0001 0 1 0 28 46 L 9 46 L 9 2 L 27 2 L 27 16 L 41 16 L 41 25 A 1.0001 1.0001 0 1 0 43 25 L 43 14.585938 L 28.414062 0 L 7 0 z M 29 3.4140625 L 39.585938 14 L 29 14 L 29 3.4140625 z M 39.537109 28 L 36.818359 30.630859 L 33.072266 30.099609 L 32.419922 33.826172 L 29.076172 35.599609 L 30.738281 39 L 29.076172 42.398438 L 32.419922 44.171875 L 33.072266 47.898438 L 36.818359 47.369141 L 39.537109 50 L 42.257812 47.369141 L 46.003906 47.900391 L 46.65625 44.173828 L 50 42.400391 L 48.337891 39 L 50 35.601562 L 46.65625 33.828125 L 46.003906 30.101562 L 42.257812 30.630859 L 39.537109 28 z M 39.537109 30.783203 L 40.865234 32.068359 L 41.568359 32.748047 L 42.537109 32.611328 L 44.367188 32.353516 L 44.685547 34.173828 L 44.855469 35.136719 L 45.71875 35.595703 L 47.351562 36.460938 L 46.539062 38.121094 L 46.111328 39 L 46.541016 39.878906 L 47.353516 41.541016 L 45.71875 42.408203 L 44.855469 42.865234 L 44.685547 43.828125 L 44.367188 45.650391 L 42.537109 45.390625 L 41.568359 45.253906 L 40.865234 45.933594 L 39.537109 47.21875 L 38.207031 45.933594 L 37.505859 45.253906 L 36.537109 45.390625 L 34.707031 45.648438 L 34.388672 43.828125 L 34.21875 42.865234 L 33.355469 42.40625 L 31.722656 41.539062 L 32.533203 39.878906 L 32.964844 39 L 32.535156 38.121094 L 31.722656 36.458984 L 33.357422 35.591797 L 34.220703 35.134766 L 34.390625 34.171875 L 34.708984 32.349609 L 36.539062 32.609375 L 37.507812 32.746094 L 38.210938 32.066406 L 39.537109 30.783203 z" font-weight="400" font-family="sans-serif" white-space="normal" overflow="visible"/>
</svg>
